# xmcd CD database file
#
# Track frame offsets:
#	150
#	22895
#	40311
#	66519
#
# Disc length: 1188 seconds
#
# Revision: 0
# Processed by: cddbd v1.5PL3 Copyright (c) Steve Scherf et al.
# Submitted via: CDex 1.51
#
DISCID=2f04a204
DTITLE=愛内里菜 - 空気
DYEAR=2003
DGENRE=Pop
TTITLE0=愛内里菜 - 空気
TTITLE1=愛内里菜 - Silver hide and seek
TTITLE2=愛内里菜 - ∞ INFINITY -night clubbers mix-
TTITLE3=愛内里菜 - 空気 -instrumental-
EXTD=YEAR: 2003
EXTT0=
EXTT1=
EXTT2=
EXTT3=
PLAYORDER=
